<svg width="118" height="49" viewBox="0 0 118 49" fill="none" xmlns="http://www.w3.org/2000/svg">
<path d="M14.1608 12.9995H35.6908C35.7179 12.9991 35.7446 13.0056 35.7684 13.0184C35.7923 13.0312 35.8124 13.0499 35.8269 13.0727C35.8415 13.0956 35.8499 13.1217 35.8515 13.1487C35.853 13.1757 35.8477 13.2027 35.8358 13.227C33.9798 16.9751 31.182 20.1769 27.7167 22.5187C22.1192 26.2954 16.4825 26.6854 14.1625 26.7062C14.1413 26.7066 14.1203 26.7029 14.1006 26.6951C14.0809 26.6873 14.0629 26.6756 14.0478 26.6608C14.0327 26.646 14.0206 26.6283 14.0124 26.6087C14.0042 26.5892 14 26.5682 14 26.547V13.1587C14 13.1377 14.0042 13.1168 14.0123 13.0974C14.0204 13.078 14.0322 13.0604 14.0472 13.0456C14.0622 13.0308 14.0799 13.0191 14.0994 13.0112C14.1189 13.0033 14.1398 12.9993 14.1608 12.9995Z" fill="#FF6250"/>
<path d="M18.8075 37.9993C21.4626 37.9993 23.615 35.8469 23.615 33.1918C23.615 30.5367 21.4626 28.3843 18.8075 28.3843C16.1524 28.3843 14 30.5367 14 33.1918C14 35.8469 16.1524 37.9993 18.8075 37.9993Z" fill="#FFDF90"/>
<path d="M28.6349 37.7146C27.2749 37.1954 26.5515 35.6988 27.0124 34.3738L30.6415 24.0171C31.1065 22.6921 32.5857 22.0396 33.9457 22.5588C35.3057 23.0788 36.029 24.5746 35.5682 25.9004L31.939 36.2571C31.474 37.5821 29.9949 38.2354 28.6349 37.7146Z" fill="#3366FF"/>
<path d="M53.3239 21.7102C53.2784 21.2519 53.0833 20.8958 52.7386 20.642C52.3939 20.3883 51.9261 20.2614 51.3352 20.2614C50.9337 20.2614 50.5947 20.3182 50.3182 20.4318C50.0417 20.5417 49.8295 20.6951 49.6818 20.892C49.5379 21.089 49.4659 21.3125 49.4659 21.5625C49.4583 21.7708 49.5019 21.9527 49.5966 22.108C49.6951 22.2633 49.8295 22.3977 50 22.5114C50.1705 22.6212 50.3674 22.7178 50.5909 22.8011C50.8144 22.8807 51.053 22.9489 51.3068 23.0057L52.3523 23.2557C52.8598 23.3693 53.3258 23.5208 53.75 23.7102C54.1742 23.8996 54.5417 24.1326 54.8523 24.4091C55.1629 24.6856 55.4034 25.0114 55.5739 25.3864C55.7481 25.7614 55.8371 26.1913 55.8409 26.6761C55.8371 27.3883 55.6553 28.0057 55.2955 28.5284C54.9394 29.0473 54.4242 29.4508 53.75 29.7386C53.0795 30.0227 52.2708 30.1648 51.3239 30.1648C50.3845 30.1648 49.5663 30.0208 48.8693 29.733C48.1761 29.4451 47.6345 29.0189 47.2443 28.4545C46.858 27.8864 46.6553 27.1837 46.6364 26.3466H49.017C49.0436 26.7367 49.1553 27.0625 49.3523 27.3239C49.553 27.5814 49.8201 27.7765 50.1534 27.9091C50.4905 28.0379 50.8712 28.1023 51.2955 28.1023C51.7121 28.1023 52.0739 28.0417 52.3807 27.9205C52.6913 27.7992 52.9318 27.6307 53.1023 27.4148C53.2727 27.1989 53.358 26.9508 53.358 26.6705C53.358 26.4091 53.2803 26.1894 53.125 26.0114C52.9735 25.8333 52.75 25.6818 52.4545 25.5568C52.1629 25.4318 51.8049 25.3182 51.3807 25.2159L50.1136 24.8977C49.1326 24.6591 48.358 24.286 47.7898 23.7784C47.2216 23.2708 46.9394 22.5871 46.9432 21.7273C46.9394 21.0227 47.1269 20.4072 47.5057 19.8807C47.8883 19.3542 48.4129 18.9432 49.0795 18.6477C49.7462 18.3523 50.5038 18.2045 51.3523 18.2045C52.2159 18.2045 52.9697 18.3523 53.6136 18.6477C54.2614 18.9432 54.7652 19.3542 55.125 19.8807C55.4848 20.4072 55.6705 21.017 55.6818 21.7102H53.3239ZM61.3935 30.1705C60.4995 30.1705 59.7306 29.9811 59.0866 29.6023C58.4465 29.2197 57.9541 28.6894 57.6094 28.0114C57.2685 27.3333 57.098 26.553 57.098 25.6705C57.098 24.7765 57.2704 23.9924 57.6151 23.3182C57.9635 22.6402 58.4579 22.1117 59.098 21.733C59.7382 21.3504 60.4995 21.1591 61.3821 21.1591C62.1435 21.1591 62.8101 21.2973 63.3821 21.5739C63.9541 21.8504 64.4067 22.2386 64.7401 22.7386C65.0734 23.2386 65.2571 23.8258 65.2912 24.5H63.0071C62.9427 24.0644 62.7723 23.714 62.4957 23.4489C62.223 23.1799 61.8651 23.0455 61.4219 23.0455C61.0469 23.0455 60.7192 23.1477 60.4389 23.3523C60.1624 23.553 59.9465 23.8466 59.7912 24.233C59.6359 24.6193 59.5582 25.0871 59.5582 25.6364C59.5582 26.1932 59.634 26.6667 59.7855 27.0568C59.9408 27.447 60.1586 27.7443 60.4389 27.9489C60.7192 28.1534 61.0469 28.2557 61.4219 28.2557C61.6984 28.2557 61.9465 28.1989 62.1662 28.0852C62.3897 27.9716 62.5734 27.8068 62.7173 27.5909C62.8651 27.3712 62.9616 27.108 63.0071 26.8011H65.2912C65.2533 27.4678 65.0715 28.0549 64.7457 28.5625C64.4238 29.0663 63.9787 29.4602 63.4105 29.7443C62.8423 30.0284 62.17 30.1705 61.3935 30.1705ZM70.7841 30.1705C69.9015 30.1705 69.1383 29.983 68.4943 29.608C67.8542 29.2292 67.3598 28.7027 67.0114 28.0284C66.6629 27.3504 66.4886 26.5644 66.4886 25.6705C66.4886 24.7689 66.6629 23.9811 67.0114 23.3068C67.3598 22.6288 67.8542 22.1023 68.4943 21.7273C69.1383 21.3485 69.9015 21.1591 70.7841 21.1591C71.6667 21.1591 72.428 21.3485 73.0682 21.7273C73.7121 22.1023 74.2083 22.6288 74.5568 23.3068C74.9053 23.9811 75.0795 24.7689 75.0795 25.6705C75.0795 26.5644 74.9053 27.3504 74.5568 28.0284C74.2083 28.7027 73.7121 29.2292 73.0682 29.608C72.428 29.983 71.6667 30.1705 70.7841 30.1705ZM70.7955 28.2955C71.197 28.2955 71.5322 28.1818 71.8011 27.9545C72.0701 27.7235 72.2727 27.4091 72.4091 27.0114C72.5492 26.6136 72.6193 26.161 72.6193 25.6534C72.6193 25.1458 72.5492 24.6932 72.4091 24.2955C72.2727 23.8977 72.0701 23.5833 71.8011 23.3523C71.5322 23.1212 71.197 23.0057 70.7955 23.0057C70.3902 23.0057 70.0492 23.1212 69.7727 23.3523C69.5 23.5833 69.2936 23.8977 69.1534 24.2955C69.017 24.6932 68.9489 25.1458 68.9489 25.6534C68.9489 26.161 69.017 26.6136 69.1534 27.0114C69.2936 27.4091 69.5 27.7235 69.7727 27.9545C70.0492 28.1818 70.3902 28.2955 70.7955 28.2955ZM80.5966 30.1705C79.714 30.1705 78.9508 29.983 78.3068 29.608C77.6667 29.2292 77.1723 28.7027 76.8239 28.0284C76.4754 27.3504 76.3011 26.5644 76.3011 25.6705C76.3011 24.7689 76.4754 23.9811 76.8239 23.3068C77.1723 22.6288 77.6667 22.1023 78.3068 21.7273C78.9508 21.3485 79.714 21.1591 80.5966 21.1591C81.4792 21.1591 82.2405 21.3485 82.8807 21.7273C83.5246 22.1023 84.0208 22.6288 84.3693 23.3068C84.7178 23.9811 84.892 24.7689 84.892 25.6705C84.892 26.5644 84.7178 27.3504 84.3693 28.0284C84.0208 28.7027 83.5246 29.2292 82.8807 29.608C82.2405 29.983 81.4792 30.1705 80.5966 30.1705ZM80.608 28.2955C81.0095 28.2955 81.3447 28.1818 81.6136 27.9545C81.8826 27.7235 82.0852 27.4091 82.2216 27.0114C82.3617 26.6136 82.4318 26.161 82.4318 25.6534C82.4318 25.1458 82.3617 24.6932 82.2216 24.2955C82.0852 23.8977 81.8826 23.5833 81.6136 23.3523C81.3447 23.1212 81.0095 23.0057 80.608 23.0057C80.2027 23.0057 79.8617 23.1212 79.5852 23.3523C79.3125 23.5833 79.1061 23.8977 78.9659 24.2955C78.8295 24.6932 78.7614 25.1458 78.7614 25.6534C78.7614 26.161 78.8295 26.6136 78.9659 27.0114C79.1061 27.4091 79.3125 27.7235 79.5852 27.9545C79.8617 28.1818 80.2027 28.2955 80.608 28.2955ZM86.5114 30V18.3636H88.9318V22.7386H89.0057C89.1117 22.5038 89.2652 22.2652 89.4659 22.0227C89.6705 21.7765 89.9356 21.572 90.2614 21.4091C90.5909 21.2424 91 21.1591 91.4886 21.1591C92.125 21.1591 92.7121 21.3258 93.25 21.6591C93.7879 21.9886 94.2178 22.4867 94.5398 23.1534C94.8617 23.8163 95.0227 24.6477 95.0227 25.6477C95.0227 26.6212 94.8655 27.4432 94.5511 28.1136C94.2405 28.7803 93.8163 29.286 93.2784 29.6307C92.7443 29.9716 92.1458 30.142 91.483 30.142C91.0133 30.142 90.6136 30.0644 90.2841 29.9091C89.9583 29.7538 89.6913 29.5587 89.483 29.3239C89.2746 29.0852 89.1155 28.8447 89.0057 28.6023H88.8977V30H86.5114ZM88.8807 25.6364C88.8807 26.1553 88.9527 26.608 89.0966 26.9943C89.2405 27.3807 89.4489 27.6818 89.7216 27.8977C89.9943 28.1098 90.3258 28.2159 90.7159 28.2159C91.1098 28.2159 91.4432 28.108 91.7159 27.892C91.9886 27.6723 92.1951 27.3693 92.3352 26.983C92.4792 26.5928 92.5511 26.1439 92.5511 25.6364C92.5511 25.1326 92.4811 24.6894 92.3409 24.3068C92.2008 23.9242 91.9943 23.625 91.7216 23.4091C91.4489 23.1932 91.1136 23.0852 90.7159 23.0852C90.322 23.0852 89.9886 23.1894 89.7159 23.3977C89.447 23.6061 89.2405 23.9015 89.0966 24.2841C88.9527 24.6667 88.8807 25.1174 88.8807 25.6364ZM97.8509 33.2727C97.544 33.2727 97.2562 33.2481 96.9872 33.1989C96.7221 33.1534 96.5024 33.0947 96.3281 33.0227L96.8736 31.2159C97.1577 31.303 97.4134 31.3504 97.6406 31.358C97.8717 31.3655 98.0705 31.3125 98.2372 31.1989C98.4077 31.0852 98.5459 30.892 98.652 30.6193L98.794 30.25L95.6634 21.2727H98.2088L100.016 27.6818H100.107L101.93 21.2727H104.493L101.101 30.9432C100.938 31.4129 100.716 31.822 100.436 32.1705C100.16 32.5227 99.8092 32.7936 99.3849 32.983C98.9607 33.1761 98.4493 33.2727 97.8509 33.2727Z" fill="white"/>
</svg>
