<svg width="342" height="182" viewBox="0 0 342 182" fill="none" xmlns="http://www.w3.org/2000/svg">
<path d="M48.4098 128.858C58.9121 121.055 37.8946 120.371 33.716 117.354C-0.707496 101.699 29.5899 46.88 60.3333 70.745C70.3369 83.4654 56.2533 94.4356 45.4055 83.3169C32.7874 92.6094 66.244 99.0051 65.4287 99.8408C109.942 120.424 47.3506 174.987 30.5979 136.749C27.1791 123.529 42.4656 131.568 48.4098 128.858Z" fill="#B7FF5C"/>
<path d="M132.244 111.17C146.737 130.646 124.662 153.477 104.742 148.981C73.3142 143.094 48.1914 69.9443 95.8461 69.2711C126.803 73.4881 118.056 107.214 93.3094 95.503C117.501 160.492 107.835 87.0476 132.244 111.17Z" fill="#B7FF5C"/>
<path d="M174.772 52.4476C170.057 42.6812 186.397 31.5899 189.431 45.8637C192.592 54.5294 178.609 61.498 174.772 52.4476Z" fill="#B7FF5C"/>
<path d="M216.154 52.779C241.515 60.7615 246.954 158.28 193.103 120.022C142.8 84.2839 196.477 46.5856 216.154 52.779ZM211.228 74.2029C205.529 71.0348 196.057 100.321 202.254 104.446C208.984 108.926 215.715 76.4431 211.228 74.2029Z" fill="#B7FF5C"/>
<path d="M157.967 123.402C96.1331 136.982 126.2 53.3425 152.785 52.7944C173.412 52.3691 218.262 110.16 157.967 123.402ZM158.505 103.326C164.114 99.9655 155.139 67.4821 149.531 71.9626C145.044 77.5632 152.227 107.087 158.505 103.326Z" fill="#B7FF5C"/>
<path d="M276.219 144.919C272.02 160.465 253.577 164.58 238.126 160.98C226.703 158.318 219.49 147.029 221.527 135.493C226.476 107.462 233.773 61.5485 266.004 83.0366C285.255 89.7184 291.168 119.453 267.292 122.646C275.539 126.27 279.262 136.722 276.219 144.919ZM250.712 138.844C254.146 134.52 253.621 127.009 248.599 127.262C246.701 127.357 245.106 128.714 244.434 130.489C241.007 139.534 239.313 152.303 250.712 138.844ZM258.791 97.3739C254.704 93.9559 252.41 101.721 250.622 108.499C249.992 110.887 252.61 112.904 254.701 111.586C256.689 110.335 258.452 108.644 259.716 106.839C261.804 103.856 261.585 99.7106 258.791 97.3739Z" fill="#B7FF5C"/>
<path d="M270.743 70.1532C280.7 64.976 287.522 71.9301 290.934 82.0002C298.275 105.88 296.273 47.4947 318.019 65.7C336.866 83.2289 300.553 89.7347 312.833 127.377C321.905 155.185 280.753 155.561 285.725 126.709C292.219 100.495 251.477 85.7597 270.743 70.1532Z" fill="#B7FF5C"/>
<path d="M139.012 46.8712C131.959 67.3483 107.015 41.3384 118.924 29.8634C120.459 28.3848 122.481 27.3684 124.662 27.1643C133.029 26.381 138.863 36.3069 139.467 43.4934C139.563 44.632 139.386 45.785 139.012 46.8712Z" fill="#B7FF5C"/>
<path d="M163.815 45.2992C146.57 61.2091 140.168 18.6614 158.176 22.0795C161.798 22.7669 164.877 25.1615 166.286 28.3872C167.926 32.1407 167.832 36.3784 166.884 40.1643C166.397 42.1106 165.33 43.9018 163.815 45.2992Z" fill="#B7FF5C"/>
<path d="M237.078 60.1565C242.501 49.3926 258.854 55.7414 250.707 65.7194C244.222 73.6623 231.096 70.4511 237.078 60.1565Z" fill="#B7FF5C"/>
<path d="M221.716 39.7983C222.588 36.0154 224.424 32.2304 227.465 29.4497C230.676 26.5138 235.42 25.4008 239.65 26.7604C256.827 32.2803 230.57 68.0268 222.191 46.12C221.417 44.098 221.232 41.899 221.716 39.7983Z" fill="#B7FF5C"/>
<path d="M195.526 37.3961C194.817 33.5234 195.064 29.2765 196.997 25.6305C198.652 22.509 201.904 20.3256 205.571 19.8866C223.836 17.6998 214.093 59.788 198.168 42.6221C196.799 41.1465 195.881 39.3293 195.526 37.3961Z" fill="#B7FF5C"/>
<path d="M115.341 72.5436C104.305 69.9853 105.217 50.9983 118.956 57.5969C128.115 60.6249 125.237 75.3097 115.341 72.5436Z" fill="#B7FF5C"/>
</svg>
