<svg width="287" height="91" fill="none" xmlns="http://www.w3.org/2000/svg"><g filter="url(#a)"><path d="m61.81 34.94.73.73a28.47 28.47 0 0 1-40.27 40.26l-.72-.72A28.47 28.47 0 0 1 61.8 34.94Z" fill="#FED964" stroke="#000" stroke-width="2"/><path d="M26.73 51.14c-1.29-2.28 1-4.16 2.31-4.8 4.63-.25 13.96-.76 14.24-.9.29-.14-1.18-4.57-1.96-6.76v-4.81l6.77.71 1.24 11.75-7.3 8.9c-4.56-.41-14.02-1.81-15.3-4.1Z" fill="#F9FBF9" stroke="#000" stroke-width=".36"/><path d="M18.54 27.82c-1.37.23-4.99 2.49-4.99 6.05 0 3.56 2.67 5.7 4.28 7.12 1.6 1.42 2.6 1.75 1.6 4.45s1.13 2.79 2.31 2.5c.89-.12 2.93-.68 4.08-1.94a11 11 0 0 0 1.8 1.5c.71.48 1.54.93 2.49 1.32 6.83 2.85 13.53 1.07 14.6-4.1 1.06-5.15-2.14-7.11-2.14-7.11a5.67 5.67 0 0 0 4.27-2.2c.54 8.12 1.07 16.62-8.19 18.4-7.32 1.4-11.57-4.99-11.03-6.31-3.56 1.68-4.42 5.28 0 6.84-1.04 1.04-1.37 3.44 1.6 4.96.06.72-.18 2.87-1.6 5.72-1.78 3.56-3.2 6.77-2.5 11.04-1.12 2.43 6.36 6.44 14.3 7.44 7.96 1 16.33-1.25 16.5-3.5.18-2.2 1.5-13.8 4.63-23.34 4.27-13.02.53-25.82-1.78-29.2 1.84.42 6.23.18 6.94-2.67.7-2.82-.39-3.78-.87-4.26 4.98-.34 5.2-7.88 1.4-9.1-1.42 9.98-5.04 3-8.18 4.64a8.02 8.02 0 0 0-4.07 4.8c-1.38-1.6-4.66-5.51-9.28-4.8-1.12.17-2.12.16-3.03.13-2.53-.1-4.32-.44-5.61 2.18-.16.31-.3.67-.44 1.07-1.07 3.05-3.62 3.47-5.57 3.16a6.9 6.9 0 0 1-1.55-.43c-4.02-.76-7.18 1.36-8.37 2.25l-1.6 3.39Z" fill="#9F5342"/><path d="M33.31 15.53c0 1.43 1.84 2.61 2.76 2.85 1.29-2.62 3.08-2.29 5.61-2.18.65-1.53 1.39-4.83-.89-5.83-2.85-1.24-2.5-.89-2.85-3.2-.35-2.32-1.42-2.85-3.02-1.25-1.15 1.15-1.48 4.3-.33 5.88h-.2c-1.08.7-1.08 2.31-1.08 3.73Z" fill="#9F5342"/><path d="m25.84 45.98-.02.02m-2.3-7.86a8.47 8.47 0 0 0 2.3 7.86m4.29 2.82c6.83 2.85 13.53 1.07 14.6-4.1 1.06-5.15-2.14-7.11-2.14-7.11a5.67 5.67 0 0 0 4.27-2.2M30.11 48.82c-.95-.4-1.78-.84-2.5-1.32m2.5 1.32A12.54 12.54 0 0 1 25.8 46m21.57-13.91c.46.82.3 2.16-.54 3.32m-2.13-2.96c1.94-1.14 2.81-.99 4.27-.36M27.62 47.5c-3.56 1.68-4.42 5.28 0 6.84-1.04 1.04-1.37 3.44 1.6 4.96m-1.6-11.8c-.54 1.32 3.71 7.72 11.03 6.3 9.26-1.77 8.73-10.27 8.2-18.4M27.61 47.5a11 11 0 0 1-1.8-1.5m24.94-6.97S54 50.6 46.3 56.66c-4.99 3.91-12.28 4.48-16.2 3.02a8.43 8.43 0 0 1-.9-.38m9.44-33.8c-3.2 0-2.49 0-7.65-2.49-.32-.15-.63-.28-.94-.4m-.84 36.69c.06.72-.18 2.87-1.6 5.72-1.78 3.56-3.2 6.77-2.5 11.04-1.12 2.43 6.36 6.44 14.3 7.44 7.96 1 16.33-1.25 16.5-3.5.18-2.2 1.5-13.8 4.63-23.34 4.27-13.02.53-25.82-1.78-29.2 1.84.42 6.23.18 6.94-2.67.7-2.82-.39-3.78-.87-4.26m-.02-.01.02.01M52.9 23.01c.5-.29.71-1.1 1.09-2.14m3.18 3.92s4.63-1.07 4.63-4.8c1.16.44 2.17.6 3.04.54m-10.85.34a8.02 8.02 0 0 1 4.07-4.8c3.14-1.63 6.76 5.34 8.19-4.63 3.79 1.21 3.57 8.75-1.41 9.1m-10.85.33c-1.38-1.6-4.66-5.51-9.28-4.8-1.12.17-2.12.16-3.03.13m-13.17 5.98c-4.02-.76-7.18 1.36-8.37 2.25l-1.6 3.39c-1.37.23-4.99 2.49-4.99 6.05 0 3.56 2.67 5.7 4.28 7.12 1.6 1.42 2.6 1.75 1.6 4.45s1.13 2.79 2.31 2.5c.89-.12 2.93-.68 4.08-1.94m2.69-23.82c.42.17.96.34 1.55.43m-1.55-.43c.5.1 1.02.24 1.55.43m6-4.23c-.15.31-.3.67-.43 1.07-1.07 3.05-3.62 3.47-5.57 3.16m6-4.23c-.91-.24-2.75-1.42-2.75-2.85 0-1.42 0-3.02 1.07-3.73h.21m1.48 6.58c1.29-2.62 3.08-2.29 5.61-2.18m0 0c.65-1.53 1.39-4.83-.89-5.83-2.85-1.24-2.5-.89-2.85-3.2-.35-2.32-1.42-2.85-3.02-1.25-1.15 1.15-1.48 4.3-.33 5.88m2.1 3.02V12.7c-.95.1-1.64-.27-2.1-.9" stroke="#000" stroke-width="1.42" stroke-linecap="round" stroke-linejoin="round"/><ellipse cx="43.99" cy="24.43" rx="3.03" ry="4.63" transform="rotate(5.85 44 24.43)" fill="#F9FBF9" stroke="#000" stroke-width="1.07"/><ellipse cx="43.99" cy="24.61" rx="1.6" ry="1.96" fill="#000"/><ellipse cx="37.66" cy="22.42" rx="2.47" ry="3.53" transform="rotate(38.7 37.66 22.42)" fill="#F9FBF9" stroke="#000" stroke-width="1.07"/><path d="M17.3 30.49c0 2.49 3.02 7.83 6.04 8.54 3.03.71 7.23-2.95 9.08-6.23 2.32-4.1-1.78-8.37-7.83-9.26-7.83-1.15-7.3 4.25-7.3 6.95Z" fill="#000"/><path d="M44.17 17.31c2.32-1.6 5.88-1.42 5.16 3.92m-8.18-3.92c-2.32-.7-4.81-.32-5.52 1.96" stroke="#000" stroke-width="2.14" stroke-linecap="round"/><ellipse cx="38.9" cy="23.01" rx="1.25" ry="1.6" transform="rotate(9.27 38.9 23.01)" fill="#000"/></g><path d="M108.53 46.64c2.7.3 4.85.77 6.46 1.43a7.57 7.57 0 0 1 3.56 2.6 7 7 0 0 1 1.1 4.04c0 1.76-.57 3.3-1.72 4.62a10.84 10.84 0 0 1-4.7 3.01c-2 .68-4.3 1.03-6.86 1.03-2.86 0-5.28-.36-7.26-1.07a10.02 10.02 0 0 1-4.44-2.82 6.07 6.07 0 0 1-1.47-3.93.8.8 0 0 1 .22-.58.93.93 0 0 1 .63-.22h7.52c.5 0 .93.16 1.24.47.42.4.88.66 1.4.81.51.12 1.23.18 2.16.18 2.32 0 3.49-.35 3.49-1.06 0-.3-.16-.54-.48-.73-.3-.22-.83-.4-1.61-.55a34.3 34.3 0 0 0-3.38-.52c-3.35-.39-5.92-1.22-7.7-2.5A6.36 6.36 0 0 1 94 45.4c0-1.66.5-3.13 1.5-4.4a9.73 9.73 0 0 1 4.26-2.97c1.86-.71 4-1.07 6.45-1.07 2.55 0 4.77.4 6.68 1.21 1.9.79 3.36 1.77 4.37 2.94 1 1.17 1.5 2.32 1.5 3.45 0 .24-.09.44-.26.58-.14.15-.35.22-.62.22H110c-.41 0-.8-.14-1.14-.44a3.14 3.14 0 0 0-.95-.58 4.84 4.84 0 0 0-1.69-.22c-1.63 0-2.45.34-2.45 1.02 0 .37.31.67.95.89.64.2 1.9.4 3.81.62Zm24.31 6.46c0 1 .33 1.77 1 2.3.68.54 1.6.81 2.74.81 1.03 0 1.79-.17 2.28-.51.49-.34.9-.86 1.25-1.54.31-.64.74-.95 1.28-.95h7.92c.22 0 .4.08.55.25a.7.7 0 0 1 .26.55c0 1.5-.5 2.96-1.5 4.4-1 1.42-2.53 2.6-4.59 3.56-2.03.93-4.51 1.4-7.45 1.4-2.61 0-4.95-.4-7-1.18a10.78 10.78 0 0 1-4.85-3.67 10.33 10.33 0 0 1-1.8-6.2V48c0-2.47.6-4.53 1.8-6.17a10.45 10.45 0 0 1 4.85-3.66 18.95 18.95 0 0 1 7-1.22c2.94 0 5.42.48 7.45 1.44a10.8 10.8 0 0 1 4.59 3.55c1 1.42 1.5 2.88 1.5 4.37a.8.8 0 0 1-.26.59.75.75 0 0 1-.55.22h-7.92c-.54 0-.97-.32-1.28-.96a4.03 4.03 0 0 0-1.25-1.54 4.01 4.01 0 0 0-2.28-.51c-1.15 0-2.06.27-2.75.8a2.82 2.82 0 0 0-.99 2.32v5.87Zm46.72-.7c0 3.74-1.24 6.5-3.74 8.29-2.47 1.78-5.77 2.68-9.9 2.68-4.14 0-7.45-.9-9.94-2.68-2.47-1.79-3.71-4.57-3.71-8.36V48c0-2.5.59-4.56 1.76-6.2a10.43 10.43 0 0 1 4.88-3.67 19.58 19.58 0 0 1 7-1.18c2.62 0 4.95.4 6.98 1.18 2.05.78 3.68 2 4.88 3.63 1.2 1.64 1.8 3.7 1.8 6.16v4.48Zm-17.38.7c0 1 .32 1.77.99 2.3.68.54 1.6.81 2.75.81s2.05-.27 2.71-.8a2.87 2.87 0 0 0 1.03-2.35v-5.8c0-1-.34-1.77-1.03-2.3a4.06 4.06 0 0 0-2.71-.85c-1.15 0-2.07.27-2.75.8-.66.54-1 1.31-1 2.32v5.87Zm47.08-.7c0 3.74-1.24 6.5-3.74 8.29-2.47 1.78-5.77 2.68-9.9 2.68-4.14 0-7.45-.9-9.94-2.68-2.47-1.79-3.71-4.57-3.71-8.36V48c0-2.5.59-4.56 1.76-6.2a10.42 10.42 0 0 1 4.88-3.67 19.58 19.58 0 0 1 7-1.18c2.62 0 4.95.4 6.98 1.18 2.05.78 3.68 2 4.88 3.63 1.2 1.64 1.8 3.7 1.8 6.16v4.48Zm-17.38.7c0 1 .33 1.77.99 2.3.68.54 1.6.81 2.75.81s2.05-.27 2.71-.8a2.87 2.87 0 0 0 1.03-2.35v-5.8c0-1-.34-1.77-1.03-2.3a4.05 4.05 0 0 0-2.71-.85c-1.15 0-2.07.27-2.75.8-.66.54-1 1.31-1 2.32v5.87Zm43.93-3.49c.95.3 1.77.94 2.46 1.94.68.98 1.02 2.1 1.02 3.38 0 2.71-.88 4.74-2.64 6.09-1.76 1.32-4.33 1.98-7.7 1.98h-15.12c-.27 0-.5-.1-.7-.3a.95.95 0 0 1-.29-.7V38.32c0-.27.1-.5.3-.7.2-.2.43-.29.7-.29h14.74c3.47 0 6.03.64 7.67 1.9 1.66 1.26 2.5 3.15 2.5 5.7v.1a4.8 4.8 0 0 1-.96 3.01 4.26 4.26 0 0 1-1.98 1.58Zm-7-4.37c0-.44-.14-.81-.41-1.13-.25-.32-.61-.48-1.1-.48h-4.92v3.34h4.92c.49 0 .85-.17 1.1-.51a2 2 0 0 0 .4-1.22Zm-1.1 11.45c.55 0 .97-.18 1.24-.55.3-.4.44-.82.44-1.28v-.04c0-.47-.16-.87-.48-1.21a1.5 1.5 0 0 0-1.2-.51h-5.33v3.59h5.32Zm40.73-19.37c.22 0 .4.09.55.26.17.14.26.32.26.51 0 .15-.04.3-.11.44l-9.25 15.3V62c0 .27-.1.5-.29.7-.2.2-.43.29-.7.29h-7.8a.92.92 0 0 1-.7-.3.95.95 0 0 1-.3-.7v-8.17l-9.2-15.3a.92.92 0 0 1-.12-.4c0-.22.08-.4.22-.55a.8.8 0 0 1 .59-.26h7.74c.68 0 1.19.28 1.5.84l4.15 7.27 4.25-7.2c.37-.6.88-.9 1.54-.9h7.67Z" fill="currentcolor"/><defs><filter id="a" x="-3" y="-1" width="90" height="93" filterUnits="userSpaceOnUse" color-interpolation-filters="sRGB"><feFlood flood-opacity="0" result="BackgroundImageFix"/><feColorMatrix in="SourceAlpha" values="0 0 0 0 0 0 0 0 0 0 0 0 0 0 0 0 0 0 127 0" result="hardAlpha"/><feOffset/><feGaussianBlur stdDeviation="1.5"/><feComposite in2="hardAlpha" operator="out"/><feColorMatrix values="0 0 0 0 1 0 0 0 0 1 0 0 0 0 1 0 0 0 1 0"/><feBlend in2="BackgroundImageFix" result="effect1_dropShadow_4_107"/><feColorMatrix in="SourceAlpha" values="0 0 0 0 0 0 0 0 0 0 0 0 0 0 0 0 0 0 127 0" result="hardAlpha"/><feOffset/><feGaussianBlur stdDeviation="1.5"/><feComposite in2="hardAlpha" operator="out"/><feColorMatrix values="0 0 0 0 1 0 0 0 0 1 0 0 0 0 1 0 0 0 1 0"/><feBlend in2="effect1_dropShadow_4_107" result="effect2_dropShadow_4_107"/><feBlend in="SourceGraphic" in2="effect2_dropShadow_4_107" result="shape"/></filter></defs></svg>