<?xml version="1.0" standalone="no"?>
<!DOCTYPE svg PUBLIC "-//W3C//DTD SVG 20010904//EN"
 "http://www.w3.org/TR/2001/REC-SVG-20010904/DTD/svg10.dtd">
<svg version="1.0" xmlns="http://www.w3.org/2000/svg"
 width="512.000000pt" height="512.000000pt" viewBox="0 0 512.000000 512.000000"
 preserveAspectRatio="xMidYMid meet">
<metadata>
Created by potrace 1.14, written by Peter Selinger 2001-2017
</metadata>
<g transform="translate(0.000000,512.000000) scale(0.100000,-0.100000)"
fill="#000000" stroke="none">
<path d="M0 2560 l0 -2560 2560 0 2560 0 0 2560 0 2560 -2560 0 -2560 0 0
-2560z m3457 1675 c63 -19 117 -71 152 -144 21 -46 26 -74 29 -163 5 -130 -14
-227 -64 -328 -111 -221 -287 -244 -457 -61 -77 84 -92 132 -92 291 1 105 4
134 23 182 45 114 131 192 242 222 71 19 105 19 167 1z m-1505 -83 c70 -31
141 -102 174 -175 27 -59 29 -69 29 -197 0 -173 -14 -217 -97 -306 -152 -162
-316 -166 -422 -11 -19 29 -47 88 -62 132 -37 110 -40 274 -7 381 26 83 85
156 148 186 53 25 170 20 237 -10z m2463 -131 c104 -46 149 -116 150 -231 0
-145 -65 -286 -194 -422 -179 -189 -359 -200 -470 -28 -79 121 -89 240 -32
385 82 211 236 330 421 322 50 -3 92 -11 125 -26z m-3407 -35 c124 -63 244
-239 278 -408 18 -90 11 -145 -33 -235 -53 -109 -133 -165 -232 -165 -189 0
-398 207 -447 443 -36 173 45 326 203 385 59 22 167 13 231 -20z m1736 -370
c83 -63 132 -245 92 -340 -36 -87 -138 -157 -237 -164 -76 -6 -120 11 -168 63
-101 110 -88 277 31 392 62 60 120 84 190 80 42 -2 65 -10 92 -31z m861 -376
c226 -37 422 -289 539 -694 66 -226 90 -411 90 -676 -1 -290 -32 -463 -118
-645 -99 -208 -227 -315 -414 -346 -162 -27 -385 38 -612 178 -116 72 -287
202 -377 287 l-83 78 -67 -60 c-197 -173 -499 -297 -853 -348 -141 -20 -382
-15 -475 10 -286 77 -456 293 -484 612 -38 438 175 1003 508 1348 176 182 358
264 520 236 213 -37 441 -200 699 -500 l30 -35 23 30 c53 72 225 228 324 294
268 179 545 265 750 231z m1058 -81 c43 -12 101 -59 123 -100 69 -135 -110
-351 -303 -367 -76 -6 -136 14 -179 59 -27 28 -29 36 -29 102 0 60 5 81 29
127 49 95 104 148 182 175 47 17 125 19 177 4z m-4003 -81 c128 -59 175 -132
168 -258 -7 -130 -85 -210 -204 -210 -80 0 -143 23 -199 72 -62 54 -97 125
-103 209 -7 103 31 183 103 216 51 23 148 11 235 -29z"/>
<path d="M1614 2635 c-66 -46 -65 -297 2 -568 83 -337 224 -507 301 -365 27
50 24 248 -6 393 -50 238 -138 452 -214 521 -41 38 -53 41 -83 19z"/>
<path d="M3437 2552 c-133 -89 -292 -580 -258 -799 21 -136 103 -178 177 -91
98 117 195 461 198 703 0 66 -2 132 -7 147 -16 57 -59 73 -110 40z"/>
</g>
</svg>
